<svg width="2200" height="2200" viewBox="0 0 2200 2200" fill="none" xmlns="http://www.w3.org/2000/svg">
<rect width="2200" height="2200" fill="black"/>
<g clip-path="url(#clip0_2017_113)">
<mask id="mask0_2017_113" style="mask-type:luminance" maskUnits="userSpaceOnUse" x="89" y="910" width="2022" height="380">
<path d="M2111 910H89V1290H2111V910Z" fill="white"/>
</mask>
<g mask="url(#mask0_2017_113)">
<path d="M415.325 975C416.637 968.696 407.529 966.23 405.461 972.276C405.381 972.534 405.302 972.773 405.222 973.031C396.77 997.79 373.821 1009.4 348.465 1006.98C305.589 1005.69 287.552 959.429 282.62 922.817C282.342 920.749 282.083 918.502 281.944 916.672C281.606 912.417 278.066 909.056 273.711 909.036C269.117 908.618 264.822 911.899 264.503 916.613C262.972 933.278 258.756 950.241 251.995 965.494C243.523 984.426 229.841 1000.44 209.994 1005.19C190.644 1009.52 168.172 1007.63 153.694 992.978C148.226 987.529 143.791 980.549 141.325 973.21C141.225 972.892 141.126 972.574 141.027 972.276C138.819 966.19 129.85 968.656 131.123 975.04C132.197 979.296 133.649 983.233 135.399 986.872C140.967 1003.62 150.99 1036.93 154.271 1068.69C148.782 1072.54 143.512 1076.62 138.541 1080.98C138.063 1081.37 137.845 1081.97 137.964 1082.59C138.103 1083.24 138.6 1083.8 139.237 1084C139.396 1084.04 139.575 1084.08 139.734 1084.08C140.152 1084.08 140.529 1083.92 140.748 1083.68C145.183 1080.32 149.856 1077.16 154.768 1074.15C155.146 1078.91 155.365 1083.6 155.365 1088.18C155.365 1090.92 157.592 1093.15 160.337 1093.15C163.081 1093.15 165.308 1090.92 165.308 1088.18C165.308 1081.85 164.93 1075.35 164.294 1068.81C176.405 1062.4 189.729 1057.01 204.207 1052.76C257.861 1036.67 320.186 1043.47 381.935 1071.69C381.457 1077.26 381.199 1082.79 381.199 1088.18C381.199 1090.92 383.426 1093.15 386.171 1093.15C388.915 1093.15 391.142 1090.92 391.142 1088.18C391.142 1084.28 391.301 1080.3 391.58 1076.26C396.353 1078.61 401.106 1081.1 405.858 1083.7C406.574 1084.22 407.489 1084.1 408.086 1083.44C408.702 1082.77 408.742 1081.77 408.126 1081.08C403.273 1075.75 398.043 1070.81 392.495 1066.28C396.054 1035.02 405.819 1002.74 411.228 986.534C412.998 982.855 414.45 979.137 415.364 975.02L415.325 975ZM213.275 1019.47C244.716 1013.1 263.927 984.446 273.254 955.471C281.129 979.753 295.089 1003.4 318.914 1014.67C336.891 1022.73 357.673 1023.28 376.506 1017.24C382.929 1015.09 388.935 1011.79 394.264 1007.59C390.068 1022.61 385.753 1040.86 383.267 1059.34C353.636 1038.66 316.129 1028.16 274.626 1029.37C234.892 1030.54 195.854 1042.4 163.598 1062.52C161.212 1042.99 156.638 1023.52 152.203 1007.65C168.55 1020.2 191.28 1024 213.295 1019.45L213.275 1019.47Z" fill="#D10F19"/>
<path d="M272.602 1066.44C208.745 1066.44 157 1090.24 157 1119.62C157 1148.99 208.765 1172.79 272.602 1172.79C336.438 1172.79 388.203 1148.99 388.203 1119.62C388.203 1090.24 336.438 1066.44 272.602 1066.44ZM272.602 1165.08C215.825 1165.08 169.787 1148.91 169.787 1128.96C169.787 1109.02 215.825 1092.85 272.602 1092.85C329.378 1092.85 375.416 1109.02 375.416 1128.96C375.416 1148.91 329.378 1165.08 272.602 1165.08Z" fill="#D10F19"/>
<path d="M1500.52 1291.7C1491.93 1291.7 1484.61 1289.91 1478.56 1286.32C1472.52 1282.63 1467.94 1277.49 1464.82 1270.88C1461.7 1264.26 1460.15 1256.47 1460.15 1247.5C1460.15 1238.53 1461.66 1230.74 1464.68 1224.12C1467.8 1217.42 1472.23 1212.27 1478 1208.68C1483.85 1205.09 1490.79 1203.3 1498.82 1203.3C1505.43 1203.3 1511.1 1204.58 1515.82 1207.12C1520.54 1209.58 1524.18 1213.12 1526.73 1217.75H1527.3V1171H1546.56V1270.59H1556.2V1290H1536.22V1276.54H1530.27C1527.34 1281.45 1523.38 1285.23 1518.37 1287.88C1513.46 1290.42 1507.51 1291.7 1500.52 1291.7ZM1503.78 1275.12C1510.96 1275.12 1516.67 1273.09 1520.92 1269.03C1525.17 1264.97 1527.3 1259.49 1527.3 1252.6V1242.4C1527.3 1235.51 1525.17 1230.03 1520.92 1225.97C1516.67 1221.91 1510.96 1219.88 1503.78 1219.88C1495.94 1219.88 1489.9 1222.33 1485.65 1227.24C1481.49 1232.15 1479.41 1238.91 1479.41 1247.5C1479.41 1256.09 1481.49 1262.85 1485.65 1267.76C1489.9 1272.67 1495.94 1275.12 1503.78 1275.12ZM1610.22 1291.7C1601.25 1291.7 1593.41 1289.91 1586.71 1286.32C1580.1 1282.63 1575 1277.44 1571.41 1270.73C1567.82 1264.03 1566.02 1256.19 1566.02 1247.22C1566.02 1238.24 1567.77 1230.5 1571.26 1223.98C1574.85 1217.37 1579.91 1212.27 1586.42 1208.68C1592.94 1205.09 1600.64 1203.3 1609.51 1203.3C1618.01 1203.3 1625.33 1205 1631.47 1208.4C1637.61 1211.71 1642.33 1216.48 1645.64 1222.71C1649.04 1228.85 1650.74 1236.17 1650.74 1244.67V1251.75H1584.44C1585.2 1259.49 1587.79 1265.49 1592.23 1269.74C1596.67 1273.9 1602.62 1275.98 1610.08 1275.98C1615.56 1275.98 1620.05 1274.94 1623.54 1272.86C1627.03 1270.78 1629.44 1267.66 1630.76 1263.51H1650.31C1648.24 1272.39 1643.66 1279.33 1636.57 1284.33C1629.58 1289.24 1620.8 1291.7 1610.22 1291.7ZM1585.01 1238.29H1632.32C1631.57 1232.06 1629.21 1227.29 1625.24 1223.98C1621.27 1220.58 1616.03 1218.88 1609.51 1218.88C1603 1218.88 1597.61 1220.58 1593.36 1223.98C1589.11 1227.29 1586.33 1232.06 1585.01 1238.29ZM1689.1 1290L1652.83 1205H1673.09L1699.44 1268.75H1700.01L1725.93 1205H1745.62L1709.36 1290H1689.1ZM1755.94 1290V1171H1775.2V1290H1755.94ZM1821.41 1291.56C1811.68 1291.56 1803.98 1289.15 1798.31 1284.33C1792.74 1279.52 1789.96 1273.19 1789.96 1265.35C1789.96 1257.13 1792.79 1250.76 1798.46 1246.23C1804.12 1241.69 1812.25 1239.42 1822.82 1239.42H1849.74V1235.88C1849.74 1224.55 1843.32 1218.88 1830.47 1218.88C1819.61 1218.88 1813.1 1222.8 1810.92 1230.64H1791.66C1793.26 1221.86 1797.42 1215.11 1804.12 1210.38C1810.92 1205.66 1819.75 1203.3 1830.61 1203.3C1842.8 1203.3 1852.1 1206.13 1858.52 1211.8C1864.95 1217.37 1868.16 1225.49 1868.16 1236.17V1270.59H1877.36V1290H1857.39V1276.54H1851.44C1848.51 1281.26 1844.55 1284.95 1839.54 1287.59C1834.53 1290.24 1828.49 1291.56 1821.41 1291.56ZM1824.24 1276.54C1829.06 1276.54 1833.4 1275.6 1837.27 1273.71C1841.15 1271.82 1844.17 1269.32 1846.34 1266.2C1848.61 1262.99 1849.74 1259.45 1849.74 1255.58V1252.88H1823.81C1813.43 1252.88 1808.23 1256.76 1808.23 1264.5C1808.23 1268.28 1809.65 1271.25 1812.48 1273.42C1815.31 1275.5 1819.23 1276.54 1824.24 1276.54ZM1943.14 1291.7C1936.15 1291.7 1930.15 1290.42 1925.14 1287.88C1920.14 1285.23 1916.22 1281.45 1913.39 1276.54H1907.44V1290H1887.32V1270.59H1897.09V1171H1916.36V1217.75H1916.93C1919.48 1213.12 1923.11 1209.58 1927.84 1207.12C1932.65 1204.58 1938.27 1203.3 1944.69 1203.3C1952.82 1203.3 1959.76 1205.09 1965.52 1208.68C1971.37 1212.27 1975.81 1217.42 1978.84 1224.12C1981.95 1230.74 1983.51 1238.53 1983.51 1247.5C1983.51 1256.47 1981.9 1264.26 1978.69 1270.88C1975.58 1277.49 1971 1282.63 1964.95 1286.32C1959 1289.91 1951.73 1291.7 1943.14 1291.7ZM1939.74 1275.12C1947.67 1275.12 1953.71 1272.67 1957.87 1267.76C1962.12 1262.85 1964.24 1256.09 1964.24 1247.5C1964.24 1238.91 1962.12 1232.15 1957.87 1227.24C1953.71 1222.33 1947.67 1219.88 1939.74 1219.88C1932.65 1219.88 1926.99 1221.91 1922.74 1225.97C1918.49 1230.03 1916.36 1235.51 1916.36 1242.4V1252.6C1916.36 1259.49 1918.49 1264.97 1922.74 1269.03C1926.99 1273.09 1932.65 1275.12 1939.74 1275.12ZM2033.15 1291.7C2021.06 1291.7 2011.52 1289.2 2004.53 1284.19C1997.54 1279.09 1993.72 1272.01 1993.06 1262.94H2011.9C2012.56 1267.57 2014.68 1271.02 2018.27 1273.28C2021.86 1275.55 2027.06 1276.68 2033.86 1276.68C2045.57 1276.68 2051.42 1273.19 2051.42 1266.2C2051.42 1263.37 2050.52 1261.15 2048.73 1259.54C2046.94 1257.94 2043.96 1256.76 2039.81 1256L2020.96 1252.46C2004.62 1249.34 1996.46 1241.6 1996.46 1229.23C1996.46 1221.29 1999.57 1215.01 2005.81 1210.38C2012.04 1205.66 2020.59 1203.3 2031.45 1203.3C2042.4 1203.3 2051.09 1205.71 2057.51 1210.52C2064.03 1215.34 2067.67 1222.05 2068.42 1230.64H2049.86C2048.82 1226.3 2046.75 1223.09 2043.63 1221.01C2040.61 1218.93 2036.22 1217.89 2030.46 1217.89C2025.36 1217.89 2021.44 1218.74 2018.7 1220.44C2015.96 1222.14 2014.59 1224.6 2014.59 1227.81C2014.59 1230.17 2015.44 1232.11 2017.14 1233.62C2018.93 1235.03 2021.72 1236.12 2025.5 1236.88L2044.48 1240.56C2053.07 1242.16 2059.36 1244.95 2063.32 1248.92C2067.29 1252.79 2069.27 1258.03 2069.27 1264.64C2069.27 1273.14 2066.16 1279.8 2059.92 1284.62C2053.69 1289.34 2044.76 1291.7 2033.15 1291.7Z" fill="#D10F19"/>
<path d="M521.769 1142.14C502.42 1142.14 487.335 1137.48 476.43 1128.06C465.526 1118.73 460.033 1106.37 460.033 1091.06C460.033 1074.86 465.69 1062.41 477.004 1053.66C488.319 1044.9 504.552 1040.56 525.622 1040.56H572.601V1034.26C572.601 1016.58 562.024 1007.82 540.872 1007.82C522.425 1007.82 511.357 1014.2 507.503 1026.89H462.411C466.018 1008.88 474.545 995.212 487.827 985.962C501.108 976.713 518.817 972.047 540.872 972.047C565.304 972.047 583.915 977.531 596.787 988.418C609.658 999.305 616.053 1015.27 616.053 1036.14V1094.26H637.37V1139.03H591.457V1112.26H579.979C574.322 1121.76 566.78 1129.05 557.269 1134.2C547.759 1139.36 535.953 1141.98 521.769 1141.98V1142.14ZM528.656 1107.76C537.182 1107.76 544.807 1106.21 551.366 1103.1C557.925 1099.99 563.09 1095.89 566.943 1090.65C570.797 1085.5 572.683 1079.6 572.683 1073.06V1070.6H527.836C511.439 1070.6 503.24 1076.74 503.24 1088.85C503.24 1094.83 505.536 1099.5 510.045 1102.77C514.554 1106.04 520.785 1107.68 528.656 1107.68V1107.76Z" fill="white"/>
<path d="M665.82 1139.2V1020.26H643.438V975.484H689.35V1002.25H700.828C707.223 992.755 715.176 985.47 724.85 980.313C734.524 975.157 746.494 972.537 760.924 972.537C783.716 972.537 801.343 978.758 813.805 991.2C826.267 1003.64 832.498 1020.34 832.498 1041.3V1139.28H787.16V1049.81C787.16 1037.78 783.88 1028.69 777.485 1022.39C771.008 1016.08 761.58 1012.97 749.2 1012.97C736.82 1012.97 727.392 1016.08 720.915 1022.39C714.438 1028.69 711.24 1037.78 711.24 1049.81V1139.28H665.902L665.82 1139.2Z" fill="white"/>
<path d="M942.604 1207.95C918.009 1207.95 898.004 1202.96 882.59 1193.06C867.177 1183.15 857.995 1169.4 855.125 1151.72H903.251C907.596 1165.14 920.304 1171.94 941.211 1171.94C955.394 1171.94 966.299 1168.75 973.841 1162.28C981.384 1155.81 985.155 1146.48 985.155 1134.28V1112.43H983.762C978.842 1121.19 972.038 1127.82 963.429 1132.32C954.82 1136.82 944.408 1139.11 932.438 1139.11C916.943 1139.11 903.497 1135.68 892.101 1128.88C880.705 1122.09 871.85 1112.35 865.619 1099.82C859.306 1087.3 856.191 1072.57 856.191 1055.62C856.191 1030.16 863.242 1009.86 877.343 994.803C891.445 979.742 910.794 972.129 935.39 972.129C949.245 972.129 961.051 974.748 970.808 980.069C980.564 985.308 988.353 992.675 994.174 1002.17H1005.65V975.403H1051.56V1020.18H1029.18V1134.78C1029.18 1158.02 1021.72 1176.03 1006.8 1188.8C991.878 1201.57 970.48 1207.87 942.604 1207.87V1207.95ZM943.752 1099.91C956.296 1099.91 966.135 1096.47 973.267 1089.51C980.4 1082.63 983.926 1073.14 983.926 1061.11V1049.65C983.926 1037.86 980.318 1028.53 973.103 1021.65C965.889 1014.86 956.132 1011.42 943.752 1011.42C930.471 1011.42 920.14 1015.35 912.761 1023.13C905.383 1030.98 901.693 1041.87 901.693 1055.87C901.693 1069.86 905.383 1080.67 912.761 1088.36C920.14 1095.98 930.471 1099.82 943.752 1099.82V1099.91Z" fill="white"/>
<path d="M1152 1142.47C1134.29 1142.47 1118.96 1138.95 1105.84 1131.99C1092.72 1125.04 1082.64 1115.05 1075.51 1102.28C1068.37 1089.43 1064.85 1074.29 1064.85 1056.85C1064.85 1039.41 1068.29 1024.35 1075.26 1011.67C1082.15 999.06 1092.07 989.319 1104.94 982.443C1117.81 975.567 1132.98 972.211 1150.44 972.211C1167.9 972.211 1182.25 975.485 1194.55 982.034C1206.85 988.582 1216.28 997.914 1222.84 1010.11C1229.39 1022.31 1232.67 1036.88 1232.67 1053.74V1069.05H1108.3C1110.1 1081.24 1114.78 1090.49 1122.24 1096.88C1129.7 1103.26 1139.54 1106.45 1151.75 1106.45C1161.43 1106.45 1169.05 1104.82 1174.71 1101.54C1180.37 1098.27 1184.38 1093.28 1186.76 1086.56H1232.1C1228.49 1104 1219.64 1117.75 1205.62 1127.65C1191.6 1137.56 1173.73 1142.55 1152.08 1142.55L1152 1142.47ZM1109.37 1039.01H1189.14C1187.66 1028.61 1183.65 1020.83 1177.09 1015.68C1170.53 1010.52 1161.67 1007.9 1150.61 1007.9C1139.54 1007.9 1130.44 1010.52 1123.39 1015.84C1116.34 1021.16 1111.66 1028.86 1109.28 1039.01H1109.37Z" fill="white"/>
<path d="M1257.19 1139.2V910H1302.53V1139.2H1257.19Z" fill="white"/>
<path d="M1335.89 1139.2V910H1381.23V998.977H1382.3C1387.55 990.218 1394.68 983.67 1403.62 979.168C1412.55 974.748 1423.13 972.456 1435.34 972.456C1455.92 972.456 1472.32 978.677 1484.37 991.119C1496.51 1003.56 1502.57 1020.26 1502.57 1041.21V1139.2H1457.23V1049.73C1457.23 1037.69 1454.04 1028.61 1447.56 1022.31C1441.08 1016 1431.65 1012.89 1419.27 1012.89C1406.89 1012.89 1397.47 1016 1390.99 1022.31C1384.51 1028.61 1381.31 1037.69 1381.31 1049.73V1139.2H1335.98H1335.89Z" fill="white"/>
<path d="M1587.1 1142.14C1567.75 1142.14 1552.67 1137.48 1541.76 1128.06C1530.86 1118.73 1525.37 1106.37 1525.37 1091.06C1525.37 1074.86 1531.02 1062.41 1542.34 1053.66C1553.65 1044.9 1569.88 1040.56 1590.95 1040.56H1637.93V1034.26C1637.93 1016.58 1627.36 1007.82 1606.2 1007.82C1587.76 1007.82 1576.69 1014.2 1572.84 1026.89H1527.74C1531.35 1008.88 1539.88 995.212 1553.16 985.962C1566.44 976.713 1584.15 972.047 1606.2 972.047C1630.64 972.047 1649.25 977.531 1662.12 988.418C1674.99 999.305 1681.39 1015.27 1681.39 1036.14V1094.26H1702.7V1139.03H1656.79V1112.26H1645.31C1639.65 1121.76 1632.11 1129.05 1622.6 1134.2C1613.09 1139.36 1601.28 1141.98 1587.1 1141.98V1142.14ZM1593.91 1107.76C1602.43 1107.76 1610.06 1106.21 1616.62 1103.1C1623.17 1099.99 1628.34 1095.89 1632.19 1090.65C1636.05 1085.5 1637.93 1079.6 1637.93 1073.06V1070.6H1593.09C1576.69 1070.6 1568.49 1076.74 1568.49 1088.85C1568.49 1094.83 1570.79 1099.5 1575.29 1102.77C1579.8 1106.04 1586.04 1107.68 1593.91 1107.68V1107.76Z" fill="white"/>
<path d="M1801.58 1142.47C1784.44 1142.47 1769.44 1138.95 1756.65 1131.99C1743.78 1125.04 1733.78 1115.13 1726.56 1102.36C1719.35 1089.59 1715.74 1074.61 1715.74 1057.34C1715.74 1040.07 1719.26 1025.09 1726.4 1012.32C1733.53 999.551 1743.53 989.728 1756.49 982.688C1769.44 975.731 1784.44 972.211 1801.58 972.211C1823.22 972.211 1841.1 977.695 1855.12 988.582C1869.13 999.469 1877.99 1014.53 1881.6 1033.6H1835.93C1833.55 1026.48 1829.45 1021.08 1823.63 1017.23C1817.81 1013.38 1810.43 1011.5 1801.5 1011.5C1789.28 1011.5 1779.52 1015.51 1772.14 1023.53C1764.77 1031.56 1761.08 1042.85 1761.08 1057.34C1761.08 1071.83 1764.85 1083.21 1772.31 1091.15C1779.77 1099.17 1789.53 1103.18 1801.58 1103.18C1820.93 1103.18 1832.65 1094.99 1836.83 1078.62H1882.5C1879.22 1098.68 1870.53 1114.31 1856.51 1125.53C1842.49 1136.82 1824.21 1142.47 1801.58 1142.47Z" fill="white"/>
<path d="M1898.89 1139.2V910H1944.23V1034.18H1945.3L2009.82 975.484H2063.93L1994.24 1038.27L2069.1 1139.2H2016.05L1962.19 1065.77L1944.15 1080.51V1139.2H1898.81H1898.89Z" fill="white"/>
</g>
</g>
<defs>
<clipPath id="clip0_2017_113">
<rect width="2022" height="380" fill="white" transform="translate(89 910)"/>
</clipPath>
</defs>
</svg>
